<svg xmlns="http://www.w3.org/2000/svg" xmlns:xlink="http://www.w3.org/1999/xlink" viewBox="0 0 856.11 545.42"><defs><style>.cls-1{fill:#998c7e;}.cls-2{fill:#b2a38e;}.cls-3{fill:#c6bcb0;}.cls-4{fill:#d6cabe;}.cls-5{fill:#bfce97;}.cls-6{fill:#998c7c;}.cls-7{fill:#76ddd0;}.cls-8{fill:#c6bdb0;}.cls-18,.cls-19,.cls-9{fill:none;stroke:#76ddd0;}.cls-9{stroke-linecap:round;stroke-linejoin:round;stroke-width:5.95px;}.cls-10{fill:#887254;}.cls-11{fill:#cdac91;}.cls-12{fill:#d5521b;}.cls-13{fill:#fff09a;}.cls-14{fill:#5aafa9;}.cls-15{fill:#bdb397;}.cls-16{fill:#9ba573;}.cls-17{fill:#b8c18e;}.cls-18,.cls-19{stroke-miterlimit:10;}.cls-18{stroke-width:3px;}.cls-19{stroke-width:11px;}.cls-20{fill:#fff;}.cls-21{fill:#202b3b;}.cls-22{fill:#fe5246;}.cls-23{isolation:isolate;}.cls-24{fill:url(#Degradado_sin_nombre_9);}.cls-25{fill:#97a3a3;}.cls-26{fill:url(#Degradado_sin_nombre_9-2);}.cls-27{fill:#98a4a4;}.cls-28{fill:url(#Degradado_sin_nombre_2);}.cls-29{fill:#fc5246;}.cls-30{fill:#ae5953;}.cls-31{fill:url(#Degradado_sin_nombre_4);}.cls-32{fill:url(#Degradado_sin_nombre_4-2);}.cls-33{fill:#90bcd4;}.cls-34{fill:#4b7693;}.cls-35{fill:url(#Degradado_sin_nombre_5);}.cls-36{fill:url(#Degradado_sin_nombre_5-2);}.cls-37{fill:url(#Degradado_sin_nombre_5-3);}.cls-38{fill:url(#Degradado_sin_nombre_5-4);}.cls-39{fill:url(#Degradado_sin_nombre_4-3);}.cls-40{fill:url(#Degradado_sin_nombre_4-4);}.cls-41{fill:url(#Degradado_sin_nombre_4-5);}.cls-42{fill:url(#Degradado_sin_nombre_4-6);}.cls-43{fill:url(#Degradado_sin_nombre_5-5);}.cls-44{fill:url(#Degradado_sin_nombre_5-6);}.cls-45{fill:#c5c5c5;}.cls-46{fill:url(#Degradado_sin_nombre_4-7);}.cls-47{fill:url(#Degradado_sin_nombre_3);}.cls-48{fill:url(#Degradado_sin_nombre_2-2);}</style><linearGradient id="Degradado_sin_nombre_9" x1="745.64" y1="299.94" x2="774.11" y2="299.94" gradientUnits="userSpaceOnUse"><stop offset="0" stop-color="#98a4a4"/><stop offset="1" stop-color="#c5c5c5"/></linearGradient><linearGradient id="Degradado_sin_nombre_9-2" x1="765.87" y1="285.77" x2="768.2" y2="285.77" xlink:href="#Degradado_sin_nombre_9"/><linearGradient id="Degradado_sin_nombre_2" x1="710.23" y1="253.89" x2="747.18" y2="274.71" gradientUnits="userSpaceOnUse"><stop offset="0" stop-color="#202b3b"/><stop offset="0.53" stop-color="#5f6b73"/><stop offset="1" stop-color="#98a4a4"/></linearGradient><linearGradient id="Degradado_sin_nombre_4" x1="716.9" y1="281.6" x2="721.11" y2="281.6" gradientUnits="userSpaceOnUse"><stop offset="0" stop-color="#b73b32"/><stop offset="1" stop-color="#fe5246"/></linearGradient><linearGradient id="Degradado_sin_nombre_4-2" x1="724.87" y1="272.16" x2="729.08" y2="272.16" xlink:href="#Degradado_sin_nombre_4"/><linearGradient id="Degradado_sin_nombre_5" x1="716.9" y1="276.79" x2="721.11" y2="276.79" gradientUnits="userSpaceOnUse"><stop offset="0" stop-color="#4b7693"/><stop offset="1" stop-color="#90bcd4"/></linearGradient><linearGradient id="Degradado_sin_nombre_5-2" x1="721.12" y1="284" x2="725.33" y2="284" xlink:href="#Degradado_sin_nombre_5"/><linearGradient id="Degradado_sin_nombre_5-3" x1="733.2" y1="281.77" x2="737.4" y2="281.77" xlink:href="#Degradado_sin_nombre_5"/><linearGradient id="Degradado_sin_nombre_5-4" x1="729.09" y1="274.56" x2="733.3" y2="274.56" xlink:href="#Degradado_sin_nombre_5"/><linearGradient id="Degradado_sin_nombre_4-3" x1="725.28" y1="286.4" x2="729.49" y2="286.4" xlink:href="#Degradado_sin_nombre_4"/><linearGradient id="Degradado_sin_nombre_4-4" x1="737.42" y1="284.17" x2="741.62" y2="284.17" xlink:href="#Degradado_sin_nombre_4"/><linearGradient id="Degradado_sin_nombre_4-5" x1="721.12" y1="279.19" x2="725.33" y2="279.19" xlink:href="#Degradado_sin_nombre_4"/><linearGradient id="Degradado_sin_nombre_4-6" x1="737.54" y1="279.31" x2="741.74" y2="279.31" xlink:href="#Degradado_sin_nombre_4"/><linearGradient id="Degradado_sin_nombre_5-5" x1="729.45" y1="288.81" x2="733.65" y2="288.81" xlink:href="#Degradado_sin_nombre_5"/><linearGradient id="Degradado_sin_nombre_5-6" x1="741.58" y1="286.58" x2="745.79" y2="286.58" xlink:href="#Degradado_sin_nombre_5"/><linearGradient id="Degradado_sin_nombre_4-7" x1="708.08" y1="251.92" x2="714.47" y2="251.92" xlink:href="#Degradado_sin_nombre_4"/><linearGradient id="Degradado_sin_nombre_3" x1="709.55" y1="245.18" x2="713.03" y2="245.18" gradientUnits="userSpaceOnUse"><stop offset="0" stop-color="#98a4a4"/><stop offset="1" stop-color="#202b3b"/></linearGradient><linearGradient id="Degradado_sin_nombre_2-2" x1="689.24" y1="265.85" x2="726.2" y2="286.67" xlink:href="#Degradado_sin_nombre_2"/></defs><g id="Calque_2" data-name="Calque 2"><g id="Calque_1-2" data-name="Calque 1"><path class="cls-1" d="M.72,381.91V342.77a16.65,16.65,0,0,1,33.29,0v43.1a16.63,16.63,0,0,1-9.59,15.06c58.14,62.5,216.35,107.33,402.4,107.33s344.33-44.85,402.43-107.38a16.62,16.62,0,0,1-9.5-15v-43.1a16.65,16.65,0,0,1,16.65-16.64h0A16.64,16.64,0,0,1,853,342.77v43.1c0,.44,0,.88-.06,1.31C850.1,474.76,660.4,545.42,426.82,545.42,191.44,545.42.62,473.67.62,385.16.62,384.07.66,383,.72,381.91Z"/><path class="cls-2" d="M.72,345.59V306.45a16.65,16.65,0,1,1,33.29,0v43.1a16.62,16.62,0,0,1-9.59,15.05c58.14,62.5,216.35,107.33,402.4,107.33s344.33-44.85,402.43-107.37a16.62,16.62,0,0,1-9.5-15v-43.1A16.66,16.66,0,0,1,836.4,289.8h0A16.65,16.65,0,0,1,853,306.45v43.1c0,.44,0,.87-.06,1.31C850.1,438.43,660.4,509.09,426.82,509.09,191.44,509.09.62,437.34.62,348.84.62,347.75.66,346.67.72,345.59Z"/><path class="cls-3" d="M.72,320.81V281.68a16.65,16.65,0,1,1,33.29,0v43.09a16.63,16.63,0,0,1-9.59,15.06c58.14,62.5,216.35,107.33,402.4,107.33s344.33-44.85,402.43-107.37a16.65,16.65,0,0,1-9.5-15V281.68A16.65,16.65,0,0,1,836.4,265h0A16.64,16.64,0,0,1,853,281.68v43.09c0,.44,0,.88-.06,1.31C850.1,413.66,660.4,484.32,426.82,484.32,191.44,484.32.62,412.57.62,324.06.62,323,.66,321.89.72,320.81Z"/><path class="cls-4" d="M.72,288.68V249.55a16.65,16.65,0,1,1,33.29,0v43.09a16.63,16.63,0,0,1-9.59,15.06C82.56,370.2,240.77,415,426.82,415s344.33-44.85,402.43-107.37a16.65,16.65,0,0,1-9.5-15V249.55A16.65,16.65,0,0,1,836.4,232.9h0A16.64,16.64,0,0,1,853,249.55v43.09c0,.45,0,.88-.06,1.31C850.1,381.53,660.4,452.19,426.82,452.19,191.44,452.19.62,380.44.62,291.93.62,290.85.66,289.76.72,288.68Z"/><ellipse class="cls-5" cx="426.19" cy="255.8" rx="426.19" ry="160.26"/><path class="cls-5" d="M608,111.13C557,71.81,487.06,32.94,410.57,43.93c-27.33,3.93-43.92,12.56-90.84,31.49S208,118.56,127.6,142.64q-2.7,32.13-5.42,64.26l154.91-20.17,158.24-35.91,86.2-13Z"/><path class="cls-6" d="M274.18,47.88,271.91,157A176.37,176.37,0,0,1,245,153.25c-12.74-2.81-23.81-5.37-25.08-11.58-.52-2.57.78-5,2-6.77Z"/><path class="cls-2" d="M271.91,157l2.27-109.14s51.12,87.13,51.7,88.17C333.15,149,285.9,162.9,271.91,157Z"/><path class="cls-7" d="M252.33,188.89c-.18-3.9,15.26-7.49,16.89-7.86,9.21-2.1,23.65-3.85,42.74,0,0,0,9.21,6.41-2.35,15.24s4.56,16.92,4.56,16.92,37.25,30.69-28.91,48.72-95.35-8.79-95.35-8.79S157.52,226,229.38,209.4c21.25-4.9,37.82-9.25,37.63-12.89C266.83,193.2,252.51,192.62,252.33,188.89Z"/><path class="cls-4" d="M217.39,0l4.19,201.48a14.6,14.6,0,0,0,4.28-2.67c18-17,72.63-22.81,85.89-23.33s2.12-14.84,2.12-14.84Z"/><path class="cls-8" d="M221.58,201.48,217.39,0S123,160.84,122,162.76C108.53,186.6,195.76,212.32,221.58,201.48Z"/><polyline class="cls-9" points="223.24 73.61 242.48 89.43 243.61 109.55 258.1 114.97 275.6 160.78 275 199.95"/><polyline class="cls-9" points="257.19 75.49 255.08 92.37 258.1 114.97"/><path class="cls-10" d="M195.55,191.56l-40.83-55.8s-28.88,9.67-43.4,2L65.35,195S145.65,246.75,195.55,191.56Z"/><path class="cls-11" d="M190.34,206.92c6-2.52,12.25-5.11,12.45-9.43.12-2.56-1.93-5-3.78-6.05-3-1.76-6.41-.78-10.74.46a31,31,0,0,0-5.7,2.26c-3.57,1.84-6.91,3.54-9,7.11-.33.58-3.35,5.93-1.36,8.47C175,213.3,185.67,208.87,190.34,206.92Z"/><path class="cls-11" d="M168.16,217.45S186.61,215,187.67,207a41.52,41.52,0,0,1-9.27-1.74c-7.88-2.45-9.31-5.55-13.57-5.37-6.49.28-13.45,7.92-11.89,12.51.9,2.64,4.48,3.8,6.6,4.28C159.54,216.7,165.13,217.76,168.16,217.45Z"/><path class="cls-11" d="M121.23,218.1a59.44,59.44,0,0,0,7.89-1c5.37-1,10.45-2,10.78-4.09.29-1.85-3.41-2.71-9.53-7.86s-5.81-7.23-8.92-7.94c-4.39-1-8.4,2.29-15.57,8-4,3.16-4.72,4.64-4.54,6,.37,2.82,4.77,4.22,5.29,4.38a19.39,19.39,0,0,0,14.6,2.5Z"/><path class="cls-11" d="M58.39,206.53c1.77.89,5.46,2.31,19.61.36,6.48-.89,8-1.51,8.22-2.48.35-1.78-4.28-2.78-7.11-8.1-1.65-3.1-.73-4-2.12-5.28-2.17-2-7.9.13-19.28,4.46-1.52.58-4.25,1.66-4.69,3.78a4.23,4.23,0,0,0,.4,2.4A10,10,0,0,0,58.39,206.53Z"/><path class="cls-11" d="M69.81,210.08s7.48,2.65,9.07-.53-3.7-7-3.7-7-11.34-2-9.91,2.12A9.46,9.46,0,0,0,69.81,210.08Z"/><path class="cls-12" d="M165.29,153.3c3.28,3.78,7.14,8,7.74,7.57s-1.84-4.48-2-4.8c-2.63-4.48-4.68-5.55-8.52-11a29.05,29.05,0,0,1-2.15-3.28c-2.29-4.35-1.81-7.24-3.31-7.66-1.2-.34-1.81,1.4-5.15,2.11a4.75,4.75,0,0,1-2.61,0c-1.13-.38-1.25-1-2.27-1.43a5,5,0,0,0-3.58.32c-2.5.93-2.43,2.31-3.9,2.49-2.28.27-3.47-2.93-5.28-2.49s-2,3.55-3,3.43c-.48-.06-.54-.81-1.17-1.81-.9-1.42-2.73-3-4.27-2.93-2.25.1-2.56,3.61-4.64,3.83-2.25.23-2.9-3.78-5.55-4.44-2.86-.71-6.2,3-13.75,12.61-3.62,4.61-6.68,8.65-9.09,11.87-.11.22-1.4,2.8-.56,3.55.1.08.59.5,2.13-.2,3.53-1.62,9.17-11.39,9.17-11.39l2.63-3.53s2.72-2,.1,12c0,0,.1,3.53,3.12-.9s3.23-6.66,3.23-6.66-.2,7.26,1.31,6.86,6.65-7.16,6.65-7.16l2.72-4.13s4.84,6.65,2.53,14.82-6.26,15.22-2.53,20.66,2.83-3.22,2.83-3.22l1.11-8.57s3,4.84,4.63-2.22a65.47,65.47,0,0,1,3.73-11.19c2,4.61,2.63,4.64,2.63,4.64,1.1,0,1.48-2.82,2.41-2.83,1.2,0,1.8,4.72,3.46,12.25,2,8.95,3.1,11.22,2,15.13-.54,1.86-1.13,2.49-1.28,4.48-.26,3.45,1.18,6.26,2.57,9,.61,1.21,1.67,3.27,2.27,3.11s.45-2,.38-3.41c-.21-4.27-1.17-5.24-1.06-7.79.11-2.84,1.33-2.54,1.74-5.67.36-2.85-.56-3.85-1.36-8.69-.44-2.63-1.2-7.21-.31-7.56.71-.29,2.78,1.95,9.08,14.09-1.2-13.06-4-16.85-6.36-17.8a6.73,6.73,0,0,1-3.55-2.42c-.51-.77-.82-1.72-.91-5.14,0-1.51,0-3.58.15-6q3.27,3.66,6.53,7.31l1.62-6.45q9.25,19,11.49,18.25Q169,170.13,165.29,153.3Z"/><path class="cls-13" d="M541.54,411.16c-87.26-16.83-109.92-37.41-112.11-54.45-4.78-37.11,96.29-73.89,77.42-111.1-10.58-20.85-42.71-27.91-46-60.82-1.13-11.46,2.91-20.42,5-25.11,14.9-33.08,72-50.35,141.93-48.52l64.67,21L635.75,272.71l-43,120.38Z"/><path class="cls-7" d="M620.26,492.58l-38.4-18.68-26.52-28.16-13.8-35a55,55,0,0,0-3.32-17c-7.68-20.82-26-30.52-31.79-33.29,0,0-40.26-14.32,8.9-51.87,0,0,31.74-44.13,15.87-85.16,0,0-17.42-41.42,47.62-67.36,19.54-7.79,39.36-26.48,36.56-37.5-1-3.74-4.59-6.07-7.42-7.43,14.85,2.28,34.68,5.87,57.77,11.64a526.21,526.21,0,0,1,72.47,23,369.19,369.19,0,0,1,65.85,34.06,140.8,140.8,0,0,1,26.33,21.88c6.44,6.9,14.33,15.5,19.54,28.83,1.76,4.48,3.72,10.81,5.13,25.17,2,20.31.74,34.75-.23,51-.72,11.94-1.56,29.56-1.78,51.49-6.8,24.3-18.18,38.93-26.32,47.22-4,4.1-7.85,7.12-15.49,13.16-9.91,7.85-24,19-42.84,28.39-2.76,1.38-6.24,3-36.9,14.19-15.11,5.51-27.72,10-36.64,13.17q-18.61,5.19-38.46,10.06Q637.94,488.84,620.26,492.58Z"/><path class="cls-14" d="M855.35,259.34c-4.76,72.12-136.24,132.42-313.88,150.6,0,.41,0,.82.07,1.22l13.8,35,26.52,28.16L620.26,493q17.67-3.77,36.13-8.26,19.85-4.86,38.46-10.07c8.92-3.16,21.53-7.66,36.64-13.16,30.66-11.16,34.14-12.81,36.9-14.19,18.86-9.41,32.93-20.55,42.84-28.39,7.64-6,11.46-9.07,15.49-13.16,8.14-8.29,19.52-22.93,26.32-47.23.22-21.93,1.06-39.54,1.78-51.48C855.74,291.7,856.91,278,855.35,259.34Z"/><rect class="cls-15" x="215.16" y="200.55" width="3.5" height="7.24"/><polygon class="cls-16" points="217.62 167.5 217.15 203.09 217.11 203.09 199.22 202.36 208.72 188.93 204.46 188.81 216.65 167.5 217.14 166.64 217.62 167.5"/><polygon class="cls-17" points="235.06 202.36 217.15 203.09 217.11 203.09 216.65 167.5 217.14 166.64 217.62 167.5 229.8 188.81 225.54 188.93 235.06 202.36"/><rect class="cls-15" x="317.22" y="182.69" width="2.77" height="5.74"/><polygon class="cls-16" points="319.16 156.49 318.79 184.71 318.76 184.71 304.57 184.13 312.11 173.48 308.73 173.39 318.39 156.49 318.78 155.81 319.16 156.49"/><polygon class="cls-17" points="332.99 184.13 318.79 184.71 318.76 184.71 318.39 156.49 318.78 155.81 319.16 156.49 328.82 173.39 325.44 173.48 332.99 184.13"/><rect class="cls-15" x="394.21" y="83.05" width="2.1" height="4.35"/><polygon class="cls-16" points="395.68 63.21 395.4 84.58 395.38 84.58 384.63 84.14 390.34 76.08 387.79 76.01 395.1 63.21 395.39 62.7 395.68 63.21"/><polygon class="cls-17" points="406.15 84.14 395.4 84.58 395.38 84.58 395.1 63.21 395.39 62.7 395.68 63.21 403 76.01 400.44 76.08 406.15 84.14"/><rect class="cls-15" x="456.57" y="74.69" width="2.77" height="5.74"/><polygon class="cls-16" points="458.52 48.49 458.15 76.71 458.12 76.71 443.93 76.13 451.47 65.48 448.09 65.39 457.75 48.49 458.14 47.81 458.52 48.49"/><polygon class="cls-17" points="472.35 76.13 458.15 76.71 458.12 76.71 457.75 48.49 458.14 47.81 458.52 48.49 468.18 65.39 464.8 65.48 472.35 76.13"/><rect class="cls-15" x="296.83" y="294.69" width="2.77" height="5.74"/><polygon class="cls-16" points="298.78 268.49 298.41 296.71 298.38 296.71 284.19 296.13 291.73 285.48 288.35 285.39 298.01 268.49 298.4 267.81 298.78 268.49"/><polygon class="cls-17" points="312.61 296.13 298.41 296.71 298.38 296.71 298.01 268.49 298.4 267.81 298.78 268.49 308.44 285.39 305.06 285.48 312.61 296.13"/><rect class="cls-15" x="352.28" y="213.29" width="4.2" height="8.69"/><polygon class="cls-16" points="355.24 173.62 354.67 216.34 354.63 216.34 333.15 215.46 344.56 199.34 339.45 199.2 354.07 173.62 354.66 172.59 355.24 173.62"/><polygon class="cls-17" points="376.17 215.46 354.67 216.34 354.63 216.34 354.07 173.62 354.66 172.59 355.24 173.62 369.86 199.2 364.74 199.34 376.17 215.46"/><rect class="cls-15" x="136.77" y="239.34" width="3.15" height="6.52"/><polygon class="cls-16" points="138.98 209.61 138.56 241.63 138.53 241.63 122.43 240.97 130.98 228.89 127.15 228.78 138.11 209.61 138.55 208.84 138.98 209.61"/><polygon class="cls-17" points="154.68 240.97 138.56 241.63 138.53 241.63 138.11 209.61 138.55 208.84 138.98 209.61 149.94 228.78 146.11 228.89 154.68 240.97"/><rect class="cls-15" x="35.78" y="210.64" width="3.55" height="7.35"/><polygon class="cls-16" points="38.27 177.11 37.8 213.22 37.76 213.22 19.6 212.48 29.25 198.85 24.93 198.74 37.28 177.11 37.78 176.24 38.27 177.11"/><polygon class="cls-17" points="55.97 212.48 37.8 213.22 37.76 213.22 37.28 177.11 37.78 176.24 38.27 177.11 50.63 198.74 46.31 198.85 55.97 212.48"/><rect class="cls-15" x="27.91" y="241.42" width="1.9" height="3.93"/><polygon class="cls-16" points="29.24 223.5 28.99 242.8 28.97 242.8 19.26 242.4 24.42 235.12 22.11 235.06 28.71 223.5 28.98 223.03 29.24 223.5"/><polygon class="cls-17" points="38.7 242.4 28.99 242.8 28.97 242.8 28.71 223.5 28.98 223.03 29.24 223.5 35.85 235.06 33.54 235.12 38.7 242.4"/><rect class="cls-15" x="419.07" y="59.33" width="3.65" height="7.55"/><polygon class="cls-16" points="421.64 24.86 421.15 61.98 421.11 61.98 402.44 61.22 412.36 47.21 407.91 47.09 420.62 24.86 421.14 23.96 421.64 24.86"/><polygon class="cls-17" points="439.83 61.22 421.15 61.98 421.11 61.98 420.62 24.86 421.14 23.96 421.64 24.86 434.35 47.09 429.9 47.21 439.83 61.22"/><rect class="cls-15" x="348.49" y="81.74" width="2.18" height="4.5"/><polygon class="cls-16" points="350.02 61.18 349.73 83.32 349.7 83.32 338.57 82.86 344.49 74.51 341.83 74.44 349.41 61.18 349.72 60.65 350.02 61.18"/><polygon class="cls-17" points="360.87 82.86 349.73 83.32 349.7 83.32 349.41 61.18 349.72 60.65 350.02 61.18 357.59 74.44 354.94 74.51 360.87 82.86"/><rect class="cls-15" x="447.09" y="36.76" width="2.77" height="5.74"/><polygon class="cls-16" points="449.04 10.55 448.67 38.77 448.63 38.77 434.44 38.19 441.99 27.54 438.61 27.45 448.26 10.55 448.65 9.87 449.04 10.55"/><polygon class="cls-17" points="462.87 38.19 448.67 38.77 448.63 38.77 448.26 10.55 448.65 9.87 449.04 10.55 458.69 27.45 455.31 27.54 462.87 38.19"/><path class="cls-7" d="M72.8,413.34c-.28-2.4-1-10.77,3.44-13.57a7.1,7.1,0,0,1,4.52-.87c16.6,1.52,24.9,2.28,29.62,4.16,20.06,8,18.11,17.69,38.51,27.49,26.23,12.59,44.71,15.77,44.71,15.77,1.59.27,11.45,2.23,13.06,6.87,1.29,3.73-1.44,7.45-1.44,7.45a472,472,0,0,1-66.59-18.19A471.89,471.89,0,0,1,72.8,413.34Z"/><path class="cls-18" d="M81.25,370.64l47,31.49,7.48,24.25"/><path class="cls-18" d="M98.83,407.8,82.31,385.61l-1.55-32.52s15.49-38.45,73.55-38.19,64.52-60.64,64.52-60.64"/><path class="cls-19" d="M255.22,249.87c36.64-15.64,87.68-29.74,136.77-11.61,73.1,27,94.75,108,143,104,16.07-1.35,38.5-12.43,63-59.36"/><path class="cls-20" d="M726.42,305.68a23.88,23.88,0,0,1,11.12,0c3.58,1.05,6.91,2.54,10.56,3.31,4.39,1.09,9.09,1.31,13.31-.34.78-.33,1.57-.83,1.69-1.41.24-1.29-.83-2.89-1.6-4l-.36-.46a.51.51,0,0,1,.33-.88.5.5,0,0,1,.5.5.36.36,0,0,0-.07-.27c.1.09.3.38.41.51,1.83,2.38,3.27,5.62-.48,7-4.45,1.73-9.46,1.46-14,.3-3.63-.76-7.06-2.39-10.54-3.51a24.89,24.89,0,0,0-10.87-.5c-.14,0-.2-.22,0-.25Z"/><path class="cls-20" d="M732.92,310.44a20.52,20.52,0,0,1,6.45-.38,25.33,25.33,0,0,1,6.22,1.76c4,1.36,8.29,2.4,12.44,1.74a14.57,14.57,0,0,0,5.82-2.16,11.75,11.75,0,0,0,4.83-10.81,12.11,12.11,0,0,0-2.3-5.71.4.4,0,0,1,.08-.55.41.41,0,0,1,.56.07,13,13,0,0,1,2.5,6.09,12.22,12.22,0,0,1-1,6.5,12.45,12.45,0,0,1-4.19,5.07,15.18,15.18,0,0,1-6.15,2.26,18.59,18.59,0,0,1-6.53-.17,40.36,40.36,0,0,1-6.23-1.79,25.34,25.34,0,0,0-6.09-1.87,21.21,21.21,0,0,0-6.36.14.09.09,0,0,1-.11-.07A.1.1,0,0,1,732.92,310.44Z"/><path class="cls-20" d="M741.17,315.2a14.1,14.1,0,0,1,6.1,0c1,.25,2,.63,2.91,1a26.77,26.77,0,0,0,2.89.89,15.41,15.41,0,0,0,5.95.52,5.35,5.35,0,0,0,2.71-.95,20.54,20.54,0,0,1,2.51-1.77,29.41,29.41,0,0,1,5.64-2.42,6,6,0,0,0,2.47-1.49,5.81,5.81,0,0,0,1.31-2.55,17.43,17.43,0,0,0,.27-5.95,46.78,46.78,0,0,0-1-6,.3.3,0,0,1,.22-.35.31.31,0,0,1,.35.22,49.2,49.2,0,0,1,1,6,17.58,17.58,0,0,1-.3,6.17,6.46,6.46,0,0,1-1.46,2.8,6.69,6.69,0,0,1-2.7,1.63,29.18,29.18,0,0,0-5.56,2.35,19.39,19.39,0,0,0-2.47,1.74,4.66,4.66,0,0,1-1.44.73,10.39,10.39,0,0,1-1.54.28,15.55,15.55,0,0,1-6.11-.63,29.21,29.21,0,0,1-2.92-.94,27.8,27.8,0,0,0-2.86-1,14.27,14.27,0,0,0-6-.14.08.08,0,0,1-.08-.06A.06.06,0,0,1,741.17,315.2Z"/><path class="cls-21" d="M759.78,308c-5.11,2.41-17.61-.52-23.87-4h0l-37.13-21.43L694,270.85l11.06-6.39.11-.06L716.27,258,763,285h0c7.75,4.66,14.25,14.06,8.33,17.59h0Z"/><path class="cls-22" d="M763.87,306.07l7.44-3.5h0c5.92-3.53-.58-12.93-8.33-17.59h0l-46.71-27-11.06,6.39-.11.06-11,6.36,2.93,7.24,40.79,23.55h0C744.62,305.39,758.16,308.58,763.87,306.07Z"/><path class="cls-20" d="M763,285c7.73,4.64,14.22,14,8.3,17.54h0l0,0h0l0,0h0c-6.1,3.41-22.34-.34-30.38-4.8h0l-46.59-26.9,11-6.37.1-.06,11-6.37L763,285Z"/><g class="cls-23"><path class="cls-24" d="M774.11,295.33c0,.06,0,.11,0,.17v0a.53.53,0,0,0,0,.13v0a.78.78,0,0,1,0,.16v0l0,.13v.05l0,.09v0a.74.74,0,0,0,0,.14v0l0,.11v0a.36.36,0,0,1,0,.09v0l0,.08,0,0a.2.2,0,0,1,0,.08l0,0,0,.09v0a.75.75,0,0,1-.07.12l0,0,0,.07,0,.05,0,.06,0,0-.05.06,0,.05,0,.06,0,0-.06.08,0,0-.08.08,0,0-.1.11,0,0-.09.08,0,0a.86.86,0,0,1-.14.13h0l-.16.13,0,0-.17.12,0,0-.17.11,0,0h0l-.24.12,0,0-.24.11,0,0-.25.1,0,0-.26.1h0l-.28.09h0l-.28.09h-.05l-.28.07-.06,0-.29.06h0l-.31.06h0l-.33,0-.1,0-.24,0-.12,0-.23,0-.13,0-.25,0h-.1l-.36,0h0l-.33,0h-2.83l-.24,0h-.21l-.25,0-.17,0-.36,0-.18,0-.36,0h-.17l-.5-.06h0l-.53-.07-.39-.06h0l-.42-.07-.14,0-.3-.05-.15,0-.31-.06-.13,0-.43-.08-.07,0-.36-.07-.15,0-.27-.05-.25-.06-.23-.05-.25,0-.23-.05-.25-.06-.24-.06-.25-.06-.23-.05-.25-.07-.23-.06-.25-.06-.23-.06-.24-.07-.23-.06-.25-.07-.21-.06-.56-.16h0l-.52-.16-.16-.05-.4-.13-.17-.05-.51-.17h0l-.53-.18-.15,0-.38-.14-.16-.06-.46-.17-.06,0-.5-.2-.34-.13,0,0-.32-.13-.09,0-.36-.15h0l-.32-.14-.08,0-.35-.15,0,0-.32-.14-.08,0-.33-.16h0l-.3-.15-.08,0-.32-.16h0l-.29-.16-.08,0-.29-.16h0v5.6l.29.16.08,0,.3.15h0l.31.16.08,0,.3.15h0l.33.15.09,0,.31.15h0l.34.15.09,0,.32.14,0,0,.36.15.09,0,.33.14,0,0,.29.11.05,0,.5.19.06,0,.46.17.16.05.38.14.16.06.53.18h0l.52.18.16,0,.4.12.16.06.53.15h0l.55.16.06,0,.15.05.25.06.23.07.25.06.23.07.25.06.23.06.25.06.23.06.25.06.23,0,.25.06.23.05.25.06.24.05.25.05.11,0,.16,0,.14,0,.37.07H759l.43.08.12,0,.32.05.14,0,.31.05.13,0,.43.07h0l.34,0h.05l.53.07h0l.51.06.16,0,.36,0,.19,0,.35,0h.18l.24,0,.21,0h.24l.21,0h2.62l.34,0h0l.36,0H768l.17,0h.21l.22,0h.13l.23,0h.11l.32-.06h0l.31-.06h0l.3-.07h.05l.29-.07,0,0,.28-.08h0l.18-.06.1,0h0l.25-.09.05,0,.24-.11h0l.24-.12h0l.24-.13h0l.17-.11,0,0,.17-.12,0,0,.16-.12h0l.15-.13,0,0h0l.08-.08,0,0,.1-.1,0,0,.07-.08,0,0,.06-.07,0,0,0,0a.43.43,0,0,0,0-.07l0,0a.43.43,0,0,0,0-.07l0,0a.25.25,0,0,0,0-.07l0,0,.05-.08,0,0h0l.06-.12v0l0-.1,0,0,0-.08,0-.05,0-.07v-.05l0-.09v0a.76.76,0,0,0,0-.11v0a.65.65,0,0,0,0-.13v0s0-.07,0-.1v0c0-.05,0-.09,0-.13v0a.78.78,0,0,1,0-.16v0s0-.08,0-.13v0a.86.86,0,0,0,0-.16h0v-.11l0-5.59Z"/><path class="cls-20" d="M764.84,283.34c6.73,4,12.41,12.21,7.3,15.28-5.37,3-19.48-.24-26.49-4.13Z"/></g><g class="cls-23"><path class="cls-21" d="M750,302.69l.82.48a1.64,1.64,0,0,1-1.25,1.63,4,4,0,0,1-1.17.2h-.19l-.18-.21a18.69,18.69,0,0,1-1.16-1.55,6,6,0,0,1-1.24-3.07l.82.47a6.27,6.27,0,0,0,1.36,2.76v-3.66l-.8-.46v-.95l.8.46v-1l.83.48v1l.8.46v.95l-.8-.46v3.66a3.45,3.45,0,0,0,.43-.12A1.21,1.21,0,0,0,750,302.69Z"/></g><path class="cls-21" d="M701.08,277.93c0,.61-.43.85-1,.55a2.14,2.14,0,0,1-1-1.66c0-.61.43-.86,1-.55A2.11,2.11,0,0,1,701.08,277.93Z"/><path class="cls-21" d="M706.21,280.89c0,.61-.43.85-1,.55a2.13,2.13,0,0,1-1-1.66c0-.61.43-.86,1-.55A2.1,2.1,0,0,1,706.21,280.89Z"/><path class="cls-21" d="M711.33,283.84c0,.62-.42.86-1,.56a2.13,2.13,0,0,1-1-1.66c0-.61.43-.86,1-.55A2.08,2.08,0,0,1,711.33,283.84Z"/><path class="cls-21" d="M716.46,286.8c0,.61-.43.86-1,.56a2.13,2.13,0,0,1-1-1.66c0-.61.43-.86,1-.55A2.09,2.09,0,0,1,716.46,286.8Z"/><path class="cls-25" d="M771.64,277.21a.54.54,0,0,0-.24-.51h0l-.51-.29h0l0,0h-.34l-.06,0h-.06l-.07,0-2.17,1.25v1.05l2.58-1.49v3.08h0s0,0,0,.05h0v0h0l0,0h0l0,0h0l0,0v0l0,0v0l0,0,0,0,0,0-.05.05h0l-.07.05-2.18,1.25v1.05l2.68-1.55a1.77,1.77,0,0,0,.81-1.39Z"/><g class="cls-23"><path class="cls-26" d="M768.16,290.55v-.17l0-6.94V276.7a.58.58,0,0,0-.32-.46l-.09,0,0,0-.06,0h0l-.12,0h-.72l-.13,0h-.15l-.05,0h0l-.07,0,0,0-.1.05h0l0,0,0,0,0,0,0,0h0l0,0h0l0,0h0l0,0h0l0,0v0h0a.08.08,0,0,0,0,0v0h0v.06h0l0,18.13a.57.57,0,0,0,.32.46,1.63,1.63,0,0,0,.89.2h.13l.13,0h0l.06,0h.15l.08,0h0l.1-.05h0l0,0,0,0,0,0,0,0,0,0h0l0,0h0l0,0h0l0,0v0h0l0,0v0h0a0,0,0,0,0,0,0v0h0v-.06h0v-4.29Z"/><path class="cls-20" d="M767.85,277.17a1.74,1.74,0,0,1-1.6,0c-.44-.26-.43-.68,0-.93a1.76,1.76,0,0,1,1.61,0A.49.49,0,0,1,767.85,277.17Z"/></g><path class="cls-25" d="M766.25,279.08a1,1,0,0,1-.19-.15l-2.64,1.52h0l-.07.05,0,0-.05,0,0,0,0,0,0,0,0,0v0l-.06.05v0l0,0,0,0,0,0,0,0,0,0v0l0,0v0h0l0,.06h0l0,0v0h0v0l0,.06h0l0,.07v.24h0v0a.17.17,0,0,1,0,.07v3.13a.56.56,0,0,0,.23.51l.5.3s0,0,0,0a.55.55,0,0,0,.6,0L766.6,284v-.45h0a1.28,1.28,0,0,1-.34-.14.66.66,0,0,1-.18-.14l-2.54,1.47V281.9a.9.9,0,0,1,.41-.7l2.67-1.54v-.44h0A1,1,0,0,1,766.25,279.08Zm-2.57,6.05Zm.06-4.25h0Z"/><polygon class="cls-27" points="738.15 271.75 738.38 271.61 738.39 270.02 738.16 270.15 738.15 271.75"/><polygon class="cls-27" points="739.98 272.8 740.21 272.67 740.21 271.07 739.98 271.21 739.98 272.8"/><polygon class="cls-27" points="741.8 273.85 742.03 273.72 742.04 272.13 741.81 272.26 741.8 273.85"/><polygon class="cls-27" points="743.63 274.91 743.86 274.77 743.86 273.18 743.63 273.31 743.63 274.91"/><polygon class="cls-27" points="745.45 275.96 745.68 275.83 745.69 274.23 745.46 274.37 745.45 275.96"/><polygon class="cls-27" points="747.28 277.01 747.51 276.88 747.51 275.29 747.28 275.42 747.28 277.01"/><polygon class="cls-27" points="749.1 278.07 749.33 277.94 749.34 276.34 749.11 276.48 749.1 278.07"/><polygon class="cls-27" points="750.93 279.12 751.16 278.99 751.16 277.39 750.93 277.53 750.93 279.12"/><polygon class="cls-27" points="752.75 280.18 752.98 280.04 752.99 278.45 752.76 278.58 752.75 280.18"/><polygon class="cls-27" points="754.58 281.23 754.81 281.1 754.81 279.5 754.58 279.64 754.58 281.23"/><polygon class="cls-27" points="756.4 282.28 756.63 282.15 756.64 280.56 756.41 280.69 756.4 282.28"/><polygon class="cls-27" points="758.23 283.34 758.46 283.2 758.46 281.61 758.23 281.75 758.23 283.34"/><polygon class="cls-27" points="718.04 260.14 718.27 260 718.28 258.41 718.05 258.55 718.04 260.14"/><polygon class="cls-27" points="719.87 261.19 720.1 261.06 720.11 259.46 719.87 259.6 719.87 261.19"/><polygon class="cls-27" points="721.69 262.25 721.92 262.11 721.93 260.52 721.7 260.65 721.69 262.25"/><polygon class="cls-27" points="723.52 263.3 723.75 263.17 723.75 261.57 723.52 261.71 723.52 263.3"/><polygon class="cls-27" points="725.34 264.35 725.58 264.22 725.58 262.63 725.35 262.76 725.34 264.35"/><polygon class="cls-27" points="727.17 265.41 727.4 265.27 727.4 263.68 727.17 263.81 727.17 265.41"/><polygon class="cls-27" points="729 266.46 729.23 266.33 729.23 264.73 729 264.87 729 266.46"/><polygon class="cls-27" points="730.82 267.51 731.05 267.38 731.06 265.79 730.82 265.92 730.82 267.51"/><polygon class="cls-27" points="732.64 268.57 732.88 268.44 732.88 266.84 732.65 266.98 732.64 268.57"/><polygon class="cls-27" points="734.47 269.62 734.7 269.49 734.71 267.89 734.48 268.03 734.47 269.62"/><polygon class="cls-27" points="736.29 270.68 736.53 270.54 736.53 268.95 736.3 269.08 736.29 270.68"/><polygon class="cls-27" points="738.12 271.73 738.35 271.6 738.36 270 738.13 270.14 738.12 271.73"/><polygon class="cls-28" points="716.91 256.83 716.68 256.97 758.87 281.32 758.87 282.11 759.1 281.98 759.1 281.19 716.91 256.83"/><polygon class="cls-21" points="716.68 256.97 716.68 257.75 717.31 258.12 717.31 259.71 718.04 260.14 718.05 258.55 719.14 259.17 719.13 260.77 719.87 261.19 719.87 259.6 720.96 260.23 720.96 261.82 721.69 262.25 721.7 260.65 722.79 261.28 722.78 262.87 723.52 263.3 723.52 261.71 724.61 262.33 724.61 263.93 725.34 264.35 725.35 262.76 726.44 263.39 726.43 264.98 727.17 265.41 727.17 263.81 728.26 264.44 728.26 266.04 729 266.46 729 264.87 730.09 265.5 730.08 267.09 730.82 267.51 730.82 265.92 731.91 266.55 731.91 268.14 732.64 268.57 732.65 266.98 733.74 267.6 733.73 269.2 734.47 269.62 734.48 268.03 735.56 268.66 735.56 270.25 736.29 270.68 736.3 269.08 737.39 269.71 737.38 271.31 738.12 271.73 738.12 271.73 738.15 271.75 738.16 270.15 738.76 270.5 738.76 270.5 739.24 270.78 739.24 272.38 739.98 272.8 739.98 271.21 741.07 271.83 741.07 273.43 741.8 273.85 741.81 272.26 742.89 272.89 742.89 274.48 743.63 274.91 743.63 273.31 744.72 273.94 744.72 275.54 745.45 275.96 745.46 274.37 746.54 275 746.54 276.59 747.28 277.01 747.28 275.42 748.37 276.05 748.37 277.64 749.1 278.07 749.11 276.48 750.2 277.1 750.19 278.7 750.93 279.12 750.93 277.53 752.02 278.16 752.02 279.75 752.75 280.18 752.76 278.58 753.85 279.21 753.84 280.81 754.58 281.23 754.58 279.64 755.67 280.26 755.67 281.86 756.4 282.28 756.41 280.69 757.5 281.32 757.49 282.91 758.23 283.34 758.23 281.75 758.87 282.11 758.87 281.32 716.68 256.97"/><g class="cls-23"><polygon class="cls-29" points="716.91 277.98 724.87 273.35 729.07 275.77 721.11 280.4 716.91 277.98"/><polygon class="cls-30" points="721.11 280.4 729.07 275.77 729.05 280.59 721.09 285.21 721.11 280.4"/><polygon class="cls-31" points="716.91 277.98 716.9 282.79 721.09 285.21 721.11 280.4 716.91 277.98"/></g><g class="cls-23"><polygon class="cls-29" points="724.89 268.54 732.85 263.91 737.04 266.33 729.08 270.96 724.89 268.54"/><polygon class="cls-30" points="729.08 270.96 737.04 266.33 737.02 271.15 729.07 275.77 729.08 270.96"/><polygon class="cls-32" points="724.89 268.54 724.87 273.36 729.07 275.77 729.08 270.96 724.89 268.54"/></g><g class="cls-23"><polygon class="cls-33" points="716.91 273.17 724.87 268.54 729.07 270.96 721.11 275.59 716.91 273.17"/><polygon class="cls-34" points="721.11 275.59 729.07 270.96 729.05 275.78 721.09 280.41 721.11 275.59"/><polygon class="cls-35" points="716.91 273.17 716.9 277.99 721.09 280.41 721.11 275.59 716.91 273.17"/></g><g class="cls-23"><polygon class="cls-33" points="721.14 280.38 729.1 275.75 733.29 278.18 725.33 282.8 721.14 280.38"/><polygon class="cls-34" points="725.33 282.8 733.29 278.18 733.27 282.99 725.31 287.62 725.33 282.8"/><polygon class="cls-36" points="721.14 280.38 721.12 285.2 725.31 287.62 725.33 282.8 721.14 280.38"/></g><g class="cls-23"><polygon class="cls-33" points="733.21 278.15 741.17 273.53 745.36 275.95 737.4 280.57 733.21 278.15"/><polygon class="cls-34" points="737.4 280.57 745.36 275.95 745.35 280.76 737.39 285.39 737.4 280.57"/><polygon class="cls-37" points="733.21 278.15 733.2 282.97 737.39 285.39 737.4 280.57 733.21 278.15"/></g><g class="cls-23"><polygon class="cls-33" points="729.11 270.94 737.07 266.32 741.26 268.74 733.3 273.36 729.11 270.94"/><polygon class="cls-34" points="733.3 273.36 741.26 268.74 741.25 273.55 733.29 278.18 733.3 273.36"/><polygon class="cls-38" points="729.11 270.94 729.1 275.76 733.29 278.18 733.3 273.36 729.11 270.94"/></g><g class="cls-23"><polygon class="cls-29" points="725.3 282.79 733.26 278.16 737.45 280.58 729.49 285.2 725.3 282.79"/><polygon class="cls-30" points="729.49 285.2 737.45 280.58 737.43 285.39 729.48 290.02 729.49 285.2"/><polygon class="cls-39" points="725.3 282.79 725.28 287.6 729.48 290.02 729.49 285.2 725.3 282.79"/></g><g class="cls-23"><polygon class="cls-29" points="737.43 280.56 745.39 275.93 749.58 278.35 741.62 282.98 737.43 280.56"/><polygon class="cls-30" points="741.62 282.98 749.58 278.35 749.57 283.17 741.61 287.79 741.62 282.98"/><polygon class="cls-40" points="737.43 280.56 737.42 285.37 741.61 287.79 741.62 282.98 737.43 280.56"/></g><g class="cls-23"><polygon class="cls-29" points="721.14 275.57 729.1 270.95 733.29 273.37 725.33 277.99 721.14 275.57"/><polygon class="cls-30" points="725.33 277.99 733.29 273.37 733.27 278.18 725.31 282.81 725.33 277.99"/><polygon class="cls-41" points="721.14 275.57 721.12 280.39 725.31 282.81 725.33 277.99 721.14 275.57"/></g><g class="cls-23"><polygon class="cls-29" points="737.55 275.69 745.51 271.06 749.7 273.49 741.74 278.11 737.55 275.69"/><polygon class="cls-30" points="741.74 278.11 749.7 273.49 749.69 278.3 741.73 282.93 741.74 278.11"/><polygon class="cls-42" points="737.55 275.69 737.54 280.51 741.73 282.93 741.74 278.11 737.55 275.69"/></g><g class="cls-23"><polygon class="cls-33" points="729.46 285.19 737.42 280.56 741.61 282.98 733.65 287.61 729.46 285.19"/><polygon class="cls-34" points="733.65 287.61 741.61 282.98 741.6 287.8 733.64 292.42 733.65 287.61"/><polygon class="cls-43" points="729.46 285.19 729.45 290 733.64 292.42 733.65 287.61 729.46 285.19"/></g><g class="cls-23"><polygon class="cls-33" points="741.6 282.96 749.55 278.33 753.75 280.75 745.79 285.38 741.6 282.96"/><polygon class="cls-34" points="745.79 285.38 753.75 280.75 753.73 285.57 745.77 290.2 745.79 285.38"/><polygon class="cls-44" points="741.6 282.96 741.58 287.78 745.77 290.2 745.79 285.38 741.6 282.96"/></g><g class="cls-23"><polygon class="cls-45" points="724.28 256.5 724.25 265.2 706.86 275.31 706.89 266.61 724.28 256.5"/><polygon class="cls-27" points="706.89 266.61 706.86 275.31 699.12 270.84 699.15 262.14 706.89 266.61"/><polygon class="cls-20" points="724.28 256.5 706.89 266.61 699.15 262.14 707.8 257.11 707.88 257.06 716.54 252.03 724.28 256.5"/></g><polygon class="cls-20" points="710.97 267.5 709.11 268.57 709.11 266.42 710.97 265.34 710.97 267.5"/><polygon class="cls-20" points="714.66 265.37 712.8 266.44 712.8 264.29 714.66 263.21 714.66 265.37"/><polygon class="cls-20" points="718.36 263.24 716.49 264.31 716.49 262.16 718.36 261.08 718.36 263.24"/><polygon class="cls-20" points="722.04 261.11 720.18 262.18 720.18 260.03 722.04 258.95 722.04 261.11"/><polygon class="cls-20" points="710.97 271.71 709.11 272.79 709.11 270.63 710.97 269.56 710.97 271.71"/><polygon class="cls-20" points="714.66 269.58 712.8 270.66 712.8 268.5 714.66 267.43 714.66 269.58"/><polygon class="cls-20" points="718.36 267.45 716.49 268.53 716.49 266.37 718.36 265.3 718.36 267.45"/><polygon class="cls-20" points="722.04 265.32 720.18 266.4 720.18 264.24 722.04 263.17 722.04 265.32"/><g class="cls-23"><polygon class="cls-45" points="726.65 251.47 726.63 255.25 704.03 268.38 704.04 264.6 726.65 251.47"/><polygon class="cls-27" points="704.04 264.6 704.03 268.38 695.88 263.67 695.89 259.9 704.04 264.6"/><polygon class="cls-20" points="726.65 251.47 704.04 264.6 695.89 259.9 718.49 246.76 726.65 251.47"/></g><path class="cls-46" d="M708.11,246.81l0,8.37a1.57,1.57,0,0,0,.9,1.29,4.71,4.71,0,0,0,2.48.56h0l.29,0h0l.37-.05h0l.09,0,.16,0,.13,0,.16,0,.05,0,.06,0,.22-.08.1,0,.28-.14h0l.07,0,.07,0,.11-.08.1-.07.1-.08,0,0,.1-.1h0a.87.87,0,0,0,.09-.11l0,0a1,1,0,0,0,.08-.11l0,0v0a.93.93,0,0,0,.05-.1l0-.06v0l0-.09a.19.19,0,0,1,0-.07v0a.28.28,0,0,0,0-.09s0-.05,0-.07v0c0-1,0-2,0-3v-5.42Z"/><path class="cls-27" d="M713.51,248.23a5,5,0,0,1-4.5,0c-1.22-.73-1.2-1.9.06-2.61a5,5,0,0,1,4.51.05C714.8,246.35,714.77,247.52,713.51,248.23Z"/><g class="cls-23"><path class="cls-47" d="M709.56,242.65v4a.86.86,0,0,0,.49.71,2.52,2.52,0,0,0,1.35.3h.2l.2,0h.07l.09,0,.07,0,.08,0h.06l.13-.05.05,0,.15-.08h0l0,0,0,0,.06,0,.05,0,0,0,0,0s0,0,0-.05h0l0-.06v0a.21.21,0,0,1,0-.06s0,0,0,0h0a.08.08,0,0,0,0,0l0,0h0s0,0,0,0,0,0,0,0h0a.07.07,0,0,1,0,0v-.06c0-.53,0-1.07,0-1.62v-2.44Z"/><path class="cls-27" d="M712.51,243.38a2.68,2.68,0,0,1-2.45,0,.75.75,0,0,1,0-1.42,2.7,2.7,0,0,1,2.46,0C713.22,242.36,713.2,243,712.51,243.38Z"/></g><polygon class="cls-27" points="717.16 283.71 717.39 283.57 717.4 281.98 717.17 282.11 717.16 283.71"/><polygon class="cls-27" points="718.99 284.76 719.22 284.63 719.23 283.03 718.99 283.17 718.99 284.76"/><polygon class="cls-27" points="720.82 285.81 721.05 285.68 721.05 284.09 720.82 284.22 720.82 285.81"/><polygon class="cls-27" points="722.64 286.87 722.87 286.73 722.88 285.14 722.64 285.27 722.64 286.87"/><polygon class="cls-27" points="724.47 287.92 724.7 287.79 724.7 286.19 724.47 286.33 724.47 287.92"/><polygon class="cls-27" points="726.29 288.98 726.52 288.84 726.53 287.25 726.29 287.38 726.29 288.98"/><polygon class="cls-27" points="728.12 290.03 728.35 289.89 728.35 288.3 728.12 288.44 728.12 290.03"/><polygon class="cls-27" points="729.94 291.08 730.17 290.95 730.18 289.36 729.95 289.49 729.94 291.08"/><polygon class="cls-27" points="731.77 292.14 732 292 732 290.41 731.77 290.54 731.77 292.14"/><polygon class="cls-27" points="733.59 293.19 733.82 293.06 733.83 291.46 733.6 291.6 733.59 293.19"/><polygon class="cls-27" points="735.42 294.24 735.65 294.11 735.65 292.52 735.42 292.65 735.42 294.24"/><polygon class="cls-27" points="737.24 295.3 737.47 295.16 737.48 293.57 737.25 293.7 737.24 295.3"/><polygon class="cls-27" points="697.06 272.1 697.29 271.96 697.29 270.37 697.06 270.5 697.06 272.1"/><polygon class="cls-27" points="698.88 273.15 699.11 273.02 699.12 271.42 698.89 271.56 698.88 273.15"/><polygon class="cls-27" points="700.71 274.21 700.94 274.07 700.94 272.48 700.71 272.61 700.71 274.21"/><polygon class="cls-27" points="702.53 275.26 702.76 275.13 702.77 273.53 702.54 273.67 702.53 275.26"/><polygon class="cls-27" points="704.36 276.31 704.59 276.18 704.59 274.59 704.36 274.72 704.36 276.31"/><polygon class="cls-27" points="706.18 277.37 706.41 277.23 706.42 275.64 706.19 275.77 706.18 277.37"/><polygon class="cls-27" points="708.01 278.42 708.24 278.29 708.24 276.69 708.01 276.83 708.01 278.42"/><polygon class="cls-27" points="709.83 279.48 710.06 279.34 710.07 277.75 709.84 277.88 709.83 279.48"/><polygon class="cls-27" points="711.66 280.53 711.89 280.39 711.89 278.8 711.66 278.94 711.66 280.53"/><polygon class="cls-27" points="713.48 281.58 713.71 281.45 713.72 279.86 713.49 279.99 713.48 281.58"/><polygon class="cls-27" points="715.31 282.64 715.54 282.5 715.54 280.91 715.31 281.04 715.31 282.64"/><polygon class="cls-27" points="717.13 283.69 717.36 283.56 717.37 281.96 717.14 282.1 717.13 283.69"/><polygon class="cls-48" points="695.92 268.79 695.69 268.93 737.88 293.28 737.88 294.07 738.11 293.93 738.11 293.15 695.92 268.79"/><polygon class="cls-21" points="695.69 268.93 695.69 269.71 696.32 270.08 696.32 271.67 697.06 272.1 697.06 270.5 698.15 271.13 698.14 272.73 698.88 273.15 698.89 271.56 699.97 272.19 699.97 273.78 700.71 274.21 700.71 272.61 701.8 273.24 701.79 274.83 702.53 275.26 702.54 273.67 703.62 274.3 703.62 275.89 704.36 276.31 704.36 274.72 705.45 275.35 705.45 276.94 706.18 277.37 706.19 275.77 707.27 276.4 707.27 278 708.01 278.42 708.01 276.83 709.1 277.46 709.1 279.05 709.83 279.48 709.84 277.88 710.92 278.51 710.92 280.1 711.66 280.53 711.66 278.94 712.75 279.56 712.75 281.16 713.48 281.58 713.49 279.99 714.58 280.62 714.57 282.21 715.31 282.64 715.31 281.04 716.4 281.67 716.4 283.26 717.13 283.69 717.13 283.69 717.16 283.71 717.17 282.11 717.77 282.46 717.77 282.46 718.26 282.74 718.25 284.33 718.99 284.76 718.99 283.17 720.08 283.8 720.08 285.39 720.82 285.81 720.82 284.22 721.91 284.85 721.9 286.44 722.64 286.87 722.64 285.27 723.73 285.9 723.73 287.5 724.47 287.92 724.47 286.33 725.56 286.96 725.55 288.55 726.29 288.98 726.29 287.38 727.38 288.01 727.38 289.6 728.12 290.03 728.12 288.44 729.21 289.06 729.2 290.66 729.94 291.08 729.95 289.49 731.03 290.12 731.03 291.71 731.77 292.14 731.77 290.54 732.86 291.17 732.85 292.76 733.59 293.19 733.6 291.6 734.68 292.23 734.68 293.82 735.42 294.24 735.42 292.65 736.51 293.28 736.5 294.87 737.24 295.3 737.25 293.7 737.88 294.07 737.88 293.28 695.69 268.93"/></g></g></svg>